ply
format ascii 1.0
comment convert from other format
element vertex 180
property float x
property float y
property float z
property float nx
property float ny
property float nz
property float red
property float green
property float blue
element face 60
property list uchar int vertex_indices
end_header
7.889562 1.150329 -2.173651 0.005105 -0.859861 -0.510503 0.700000 0.700000 0.700000
0.033757 0.000000 -0.314657 0.005105 -0.859861 -0.510503 0.700000 0.700000 0.700000
2.212808 1.150329 -2.230414 0.005105 -0.859861 -0.510503 0.700000 0.700000 0.700000
2.212808 1.150329 -2.230414 0.365127 -0.920739 -0.137556 0.700000 0.700000 0.700000
0.033757 0.000000 -0.314657 0.365127 -0.920739 -0.137556 0.700000 0.700000 0.700000
0.068023 1.150328 -7.923502 0.365127 -0.920739 -0.137556 0.700000 0.700000 0.700000
0.068023 1.150328 -7.923502 -0.360232 -0.922140 -0.141034 0.700000 0.700000 0.700000
0.033757 0.000000 -0.314657 -0.360232 -0.922140 -0.141034 0.700000 0.700000 0.700000
-2.151306 1.150329 -2.254857 -0.360232 -0.922140 -0.141034 0.700000 0.700000 0.700000
-2.151306 1.150329 -2.254857 0.000604 -0.859880 -0.510496 0.700000 0.700000 0.700000
0.033757 0.000000 -0.314657 0.000604 -0.859880 -0.510496 0.700000 0.700000 0.700000
-7.817406 1.150328 -2.261558 0.000604 -0.859880 -0.510496 0.700000 0.700000 0.700000
-7.817406 1.150328 -2.261558 -0.189615 -0.962051 0.196222 0.700000 0.700000 0.700000
0.033757 0.000000 -0.314657 -0.189615 -0.962051 0.196222 0.700000 0.700000 0.700000
-3.523133 1.150328 1.888122 -0.189615 -0.962051 0.196222 0.700000 0.700000 0.700000
-3.523133 1.150328 1.888122 -0.358980 -0.928522 -0.094766 0.700000 0.700000 0.700000
0.033757 0.000000 -0.314657 -0.358980 -0.928522 -0.094766 0.700000 0.700000 0.700000
-4.869315 1.150328 6.987552 -0.358980 -0.928522 -0.094766 0.700000 0.700000 0.700000
-4.869315 1.150328 6.987552 0.120430 -0.965019 0.232884 0.700000 0.700000 0.700000
0.033757 0.000000 -0.314657 0.120430 -0.965019 0.232884 0.700000 0.700000 0.700000
-0.006854 1.150329 4.473047 0.120430 -0.965019 0.232884 0.700000 0.700000 0.700000
-0.006854 1.150329 4.473047 -0.122414 -0.965251 0.230880 0.700000 0.700000 0.700000
0.033757 0.000000 -0.314657 -0.122414 -0.965251 0.230880 0.700000 0.700000 0.700000
4.838127 1.150328 7.041885 -0.122414 -0.965251 0.230880 0.700000 0.700000 0.700000
4.838127 1.150328 7.041885 0.363409 -0.927039 -0.092374 0.700000 0.700000 0.700000
0.033757 0.000000 -0.314657 0.363409 -0.927039 -0.092374 0.700000 0.700000 0.700000
3.538153 1.150329 1.927652 0.363409 -0.927039 -0.092374 0.700000 0.700000 0.700000
3.538153 1.150329 1.927652 0.188029 -0.961689 0.199495 0.700000 0.700000 0.700000
0.033757 0.000000 -0.314657 0.188029 -0.961689 0.199495 0.700000 0.700000 0.700000
7.889562 1.150329 -2.173651 0.188029 -0.961689 0.199495 0.700000 0.700000 0.700000
7.889562 1.150329 -2.173651 0.183421 0.963579 0.194606 0.700000 0.700000 0.700000
0.035668 2.269531 -0.312831 0.183421 0.963579 0.194606 0.700000 0.700000 0.700000
3.538153 1.150329 1.927652 0.183421 0.963579 0.194606 0.700000 0.700000 0.700000
3.538153 1.150329 1.927652 0.355062 0.930476 -0.090252 0.700000 0.700000 0.700000
0.035668 2.269531 -0.312831 0.355062 0.930476 -0.090252 0.700000 0.700000 0.700000
4.838127 1.150328 7.041885 0.355062 0.930476 -0.090252 0.700000 0.700000 0.700000
4.838127 1.150328 7.041885 -0.119338 0.967005 0.225079 0.700000 0.700000 0.700000
0.035668 2.269531 -0.312831 -0.119338 0.967005 0.225079 0.700000 0.700000 0.700000
-0.006854 1.150329 4.473047 -0.119338 0.967005 0.225079 0.700000 0.700000 0.700000
-0.006854 1.150329 4.473047 0.117452 0.966757 0.227125 0.700000 0.700000 0.700000
0.035668 2.269531 -0.312831 0.117452 0.966757 0.227125 0.700000 0.700000 0.700000
-4.869315 1.150328 6.987552 0.117452 0.966757 0.227125 0.700000 0.700000 0.700000
-4.869315 1.150328 6.987552 -0.350315 0.932055 -0.092478 0.700000 0.700000 0.700000
0.035668 2.269531 -0.312831 -0.350315 0.932055 -0.092478 0.700000 0.700000 0.700000
-3.523133 1.150328 1.888122 -0.350315 0.932055 -0.092478 0.700000 0.700000 0.700000
-3.523133 1.150328 1.888122 -0.184852 0.963969 0.191293 0.700000 0.700000 0.700000
0.035668 2.269531 -0.312831 -0.184852 0.963969 0.191293 0.700000 0.700000 0.700000
-7.817406 1.150328 -2.261558 -0.184852 0.963969 0.191293 0.700000 0.700000 0.700000
-7.817406 1.150328 -2.261558 0.000591 0.866128 -0.499821 0.700000 0.700000 0.700000
0.035668 2.269531 -0.312831 0.000591 0.866128 -0.499821 0.700000 0.700000 0.700000
-2.151306 1.150329 -2.254857 0.000591 0.866128 -0.499821 0.700000 0.700000 0.700000
-2.151306 1.150329 -2.254857 -0.351624 0.925964 -0.137664 0.700000 0.700000 0.700000
0.035668 2.269531 -0.312831 -0.351624 0.925964 -0.137664 0.700000 0.700000 0.700000
0.068023 1.150328 -7.923502 -0.351624 0.925964 -0.137664 0.700000 0.700000 0.700000
0.068023 1.150328 -7.923502 0.356828 0.924447 -0.134430 0.700000 0.700000 0.700000
0.035668 2.269531 -0.312831 0.356828 0.924447 -0.134430 0.700000 0.700000 0.700000
2.212808 1.150329 -2.230414 0.356828 0.924447 -0.134430 0.700000 0.700000 0.700000
2.212808 1.150329 -2.230414 0.004998 0.866108 -0.499832 0.700000 0.700000 0.700000
0.035668 2.269531 -0.312831 0.004998 0.866108 -0.499832 0.700000 0.700000 0.700000
7.889562 1.150329 -2.173651 0.004998 0.866108 -0.499832 0.700000 0.700000 0.700000
7.889562 1.150329 -2.173651 0.005105 -0.859861 -0.510503 0.700000 0.700000 0.700000
0.033757 0.000000 -0.314657 0.005105 -0.859861 -0.510503 0.700000 0.700000 0.700000
2.212808 1.150329 -2.230414 0.005105 -0.859861 -0.510503 0.700000 0.700000 0.700000
2.212808 1.150329 -2.230414 0.365127 -0.920739 -0.137556 0.700000 0.700000 0.700000
0.033757 0.000000 -0.314657 0.365127 -0.920739 -0.137556 0.700000 0.700000 0.700000
0.068023 1.150328 -7.923502 0.365127 -0.920739 -0.137556 0.700000 0.700000 0.700000
0.068023 1.150328 -7.923502 -0.360232 -0.922140 -0.141034 0.700000 0.700000 0.700000
0.033757 0.000000 -0.314657 -0.360232 -0.922140 -0.141034 0.700000 0.700000 0.700000
-2.151306 1.150329 -2.254857 -0.360232 -0.922140 -0.141034 0.700000 0.700000 0.700000
-2.151306 1.150329 -2.254857 0.000604 -0.859880 -0.510496 0.700000 0.700000 0.700000
0.033757 0.000000 -0.314657 0.000604 -0.859880 -0.510496 0.700000 0.700000 0.700000
-7.817406 1.150328 -2.261558 0.000604 -0.859880 -0.510496 0.700000 0.700000 0.700000
-7.817406 1.150328 -2.261558 -0.189615 -0.962051 0.196222 0.700000 0.700000 0.700000
0.033757 0.000000 -0.314657 -0.189615 -0.962051 0.196222 0.700000 0.700000 0.700000
-3.523133 1.150328 1.888122 -0.189615 -0.962051 0.196222 0.700000 0.700000 0.700000
-3.523133 1.150328 1.888122 -0.358980 -0.928522 -0.094766 0.700000 0.700000 0.700000
0.033757 0.000000 -0.314657 -0.358980 -0.928522 -0.094766 0.700000 0.700000 0.700000
-4.869315 1.150328 6.987552 -0.358980 -0.928522 -0.094766 0.700000 0.700000 0.700000
-4.869315 1.150328 6.987552 0.120430 -0.965019 0.232884 0.700000 0.700000 0.700000
0.033757 0.000000 -0.314657 0.120430 -0.965019 0.232884 0.700000 0.700000 0.700000
-0.006854 1.150329 4.473047 0.120430 -0.965019 0.232884 0.700000 0.700000 0.700000
-0.006854 1.150329 4.473047 -0.122414 -0.965251 0.230880 0.700000 0.700000 0.700000
0.033757 0.000000 -0.314657 -0.122414 -0.965251 0.230880 0.700000 0.700000 0.700000
4.838127 1.150328 7.041885 -0.122414 -0.965251 0.230880 0.700000 0.700000 0.700000
4.838127 1.150328 7.041885 0.363409 -0.927039 -0.092374 0.700000 0.700000 0.700000
0.033757 0.000000 -0.314657 0.363409 -0.927039 -0.092374 0.700000 0.700000 0.700000
3.538153 1.150329 1.927652 0.363409 -0.927039 -0.092374 0.700000 0.700000 0.700000
3.538153 1.150329 1.927652 0.188029 -0.961689 0.199495 0.700000 0.700000 0.700000
0.033757 0.000000 -0.314657 0.188029 -0.961689 0.199495 0.700000 0.700000 0.700000
7.889562 1.150329 -2.173651 0.188029 -0.961689 0.199495 0.700000 0.700000 0.700000
7.889562 1.150329 -2.173651 0.183421 0.963579 0.194606 0.700000 0.700000 0.700000
0.035668 2.269531 -0.312831 0.183421 0.963579 0.194606 0.700000 0.700000 0.700000
3.538153 1.150329 1.927652 0.183421 0.963579 0.194606 0.700000 0.700000 0.700000
3.538153 1.150329 1.927652 0.355062 0.930476 -0.090252 0.700000 0.700000 0.700000
0.035668 2.269531 -0.312831 0.355062 0.930476 -0.090252 0.700000 0.700000 0.700000
4.838127 1.150328 7.041885 0.355062 0.930476 -0.090252 0.700000 0.700000 0.700000
4.838127 1.150328 7.041885 -0.119338 0.967005 0.225079 0.700000 0.700000 0.700000
0.035668 2.269531 -0.312831 -0.119338 0.967005 0.225079 0.700000 0.700000 0.700000
-0.006854 1.150329 4.473047 -0.119338 0.967005 0.225079 0.700000 0.700000 0.700000
-0.006854 1.150329 4.473047 0.117452 0.966757 0.227125 0.700000 0.700000 0.700000
0.035668 2.269531 -0.312831 0.117452 0.966757 0.227125 0.700000 0.700000 0.700000
-4.869315 1.150328 6.987552 0.117452 0.966757 0.227125 0.700000 0.700000 0.700000
-4.869315 1.150328 6.987552 -0.350315 0.932055 -0.092478 0.700000 0.700000 0.700000
0.035668 2.269531 -0.312831 -0.350315 0.932055 -0.092478 0.700000 0.700000 0.700000
-3.523133 1.150328 1.888122 -0.350315 0.932055 -0.092478 0.700000 0.700000 0.700000
-3.523133 1.150328 1.888122 -0.184852 0.963969 0.191293 0.700000 0.700000 0.700000
0.035668 2.269531 -0.312831 -0.184852 0.963969 0.191293 0.700000 0.700000 0.700000
-7.817406 1.150328 -2.261558 -0.184852 0.963969 0.191293 0.700000 0.700000 0.700000
-7.817406 1.150328 -2.261558 0.000591 0.866128 -0.499821 0.700000 0.700000 0.700000
0.035668 2.269531 -0.312831 0.000591 0.866128 -0.499821 0.700000 0.700000 0.700000
-2.151306 1.150329 -2.254857 0.000591 0.866128 -0.499821 0.700000 0.700000 0.700000
-2.151306 1.150329 -2.254857 -0.351624 0.925964 -0.137664 0.700000 0.700000 0.700000
0.035668 2.269531 -0.312831 -0.351624 0.925964 -0.137664 0.700000 0.700000 0.700000
0.068023 1.150328 -7.923502 -0.351624 0.925964 -0.137664 0.700000 0.700000 0.700000
0.068023 1.150328 -7.923502 0.356828 0.924447 -0.134430 0.700000 0.700000 0.700000
0.035668 2.269531 -0.312831 0.356828 0.924447 -0.134430 0.700000 0.700000 0.700000
2.212808 1.150329 -2.230414 0.356828 0.924447 -0.134430 0.700000 0.700000 0.700000
2.212808 1.150329 -2.230414 0.004998 0.866108 -0.499832 0.700000 0.700000 0.700000
0.035668 2.269531 -0.312831 0.004998 0.866108 -0.499832 0.700000 0.700000 0.700000
7.889562 1.150329 -2.173651 0.004998 0.866108 -0.499832 0.700000 0.700000 0.700000
7.889562 1.150329 -2.173651 0.005105 -0.859861 -0.510503 0.700000 0.700000 0.700000
0.033757 0.000000 -0.314657 0.005105 -0.859861 -0.510503 0.700000 0.700000 0.700000
2.212808 1.150329 -2.230414 0.005105 -0.859861 -0.510503 0.700000 0.700000 0.700000
2.212808 1.150329 -2.230414 0.365127 -0.920739 -0.137556 0.700000 0.700000 0.700000
0.033757 0.000000 -0.314657 0.365127 -0.920739 -0.137556 0.700000 0.700000 0.700000
0.068023 1.150328 -7.923502 0.365127 -0.920739 -0.137556 0.700000 0.700000 0.700000
0.068023 1.150328 -7.923502 -0.360232 -0.922140 -0.141034 0.700000 0.700000 0.700000
0.033757 0.000000 -0.314657 -0.360232 -0.922140 -0.141034 0.700000 0.700000 0.700000
-2.151306 1.150329 -2.254857 -0.360232 -0.922140 -0.141034 0.700000 0.700000 0.700000
-2.151306 1.150329 -2.254857 0.000604 -0.859880 -0.510496 0.700000 0.700000 0.700000
0.033757 0.000000 -0.314657 0.000604 -0.859880 -0.510496 0.700000 0.700000 0.700000
-7.817406 1.150328 -2.261558 0.000604 -0.859880 -0.510496 0.700000 0.700000 0.700000
-7.817406 1.150328 -2.261558 -0.189615 -0.962051 0.196222 0.700000 0.700000 0.700000
0.033757 0.000000 -0.314657 -0.189615 -0.962051 0.196222 0.700000 0.700000 0.700000
-3.523133 1.150328 1.888122 -0.189615 -0.962051 0.196222 0.700000 0.700000 0.700000
-3.523133 1.150328 1.888122 -0.358980 -0.928522 -0.094766 0.700000 0.700000 0.700000
0.033757 0.000000 -0.314657 -0.358980 -0.928522 -0.094766 0.700000 0.700000 0.700000
-4.869315 1.150328 6.987552 -0.358980 -0.928522 -0.094766 0.700000 0.700000 0.700000
-4.869315 1.150328 6.987552 0.120430 -0.965019 0.232884 0.700000 0.700000 0.700000
0.033757 0.000000 -0.314657 0.120430 -0.965019 0.232884 0.700000 0.700000 0.700000
-0.006854 1.150329 4.473047 0.120430 -0.965019 0.232884 0.700000 0.700000 0.700000
-0.006854 1.150329 4.473047 -0.122414 -0.965251 0.230880 0.700000 0.700000 0.700000
0.033757 0.000000 -0.314657 -0.122414 -0.965251 0.230880 0.700000 0.700000 0.700000
4.838127 1.150328 7.041885 -0.122414 -0.965251 0.230880 0.700000 0.700000 0.700000
4.838127 1.150328 7.041885 0.363409 -0.927039 -0.092374 0.700000 0.700000 0.700000
0.033757 0.000000 -0.314657 0.363409 -0.927039 -0.092374 0.700000 0.700000 0.700000
3.538153 1.150329 1.927652 0.363409 -0.927039 -0.092374 0.700000 0.700000 0.700000
3.538153 1.150329 1.927652 0.188029 -0.961689 0.199495 0.700000 0.700000 0.700000
0.033757 0.000000 -0.314657 0.188029 -0.961689 0.199495 0.700000 0.700000 0.700000
7.889562 1.150329 -2.173651 0.188029 -0.961689 0.199495 0.700000 0.700000 0.700000
7.889562 1.150329 -2.173651 0.183421 0.963579 0.194606 0.700000 0.700000 0.700000
0.035668 2.269531 -0.312831 0.183421 0.963579 0.194606 0.700000 0.700000 0.700000
3.538153 1.150329 1.927652 0.183421 0.963579 0.194606 0.700000 0.700000 0.700000
3.538153 1.150329 1.927652 0.355062 0.930476 -0.090252 0.700000 0.700000 0.700000
0.035668 2.269531 -0.312831 0.355062 0.930476 -0.090252 0.700000 0.700000 0.700000
4.838127 1.150328 7.041885 0.355062 0.930476 -0.090252 0.700000 0.700000 0.700000
4.838127 1.150328 7.041885 -0.119338 0.967005 0.225079 0.700000 0.700000 0.700000
0.035668 2.269531 -0.312831 -0.119338 0.967005 0.225079 0.700000 0.700000 0.700000
-0.006854 1.150329 4.473047 -0.119338 0.967005 0.225079 0.700000 0.700000 0.700000
-0.006854 1.150329 4.473047 0.117452 0.966757 0.227125 0.700000 0.700000 0.700000
0.035668 2.269531 -0.312831 0.117452 0.966757 0.227125 0.700000 0.700000 0.700000
-4.869315 1.150328 6.987552 0.117452 0.966757 0.227125 0.700000 0.700000 0.700000
-4.869315 1.150328 6.987552 -0.350315 0.932055 -0.092478 0.700000 0.700000 0.700000
0.035668 2.269531 -0.312831 -0.350315 0.932055 -0.092478 0.700000 0.700000 0.700000
-3.523133 1.150328 1.888122 -0.350315 0.932055 -0.092478 0.700000 0.700000 0.700000
-3.523133 1.150328 1.888122 -0.184852 0.963969 0.191293 0.700000 0.700000 0.700000
0.035668 2.269531 -0.312831 -0.184852 0.963969 0.191293 0.700000 0.700000 0.700000
-7.817406 1.150328 -2.261558 -0.184852 0.963969 0.191293 0.700000 0.700000 0.700000
-7.817406 1.150328 -2.261558 0.000591 0.866128 -0.499821 0.700000 0.700000 0.700000
0.035668 2.269531 -0.312831 0.000591 0.866128 -0.499821 0.700000 0.700000 0.700000
-2.151306 1.150329 -2.254857 0.000591 0.866128 -0.499821 0.700000 0.700000 0.700000
-2.151306 1.150329 -2.254857 -0.351624 0.925964 -0.137664 0.700000 0.700000 0.700000
0.035668 2.269531 -0.312831 -0.351624 0.925964 -0.137664 0.700000 0.700000 0.700000
0.068023 1.150328 -7.923502 -0.351624 0.925964 -0.137664 0.700000 0.700000 0.700000
0.068023 1.150328 -7.923502 0.356828 0.924447 -0.134430 0.700000 0.700000 0.700000
0.035668 2.269531 -0.312831 0.356828 0.924447 -0.134430 0.700000 0.700000 0.700000
2.212808 1.150329 -2.230414 0.356828 0.924447 -0.134430 0.700000 0.700000 0.700000
2.212808 1.150329 -2.230414 0.004998 0.866108 -0.499832 0.700000 0.700000 0.700000
0.035668 2.269531 -0.312831 0.004998 0.866108 -0.499832 0.700000 0.700000 0.700000
7.889562 1.150329 -2.173651 0.004998 0.866108 -0.499832 0.700000 0.700000 0.700000
3 0 1 2
3 3 4 5
3 6 7 8
3 9 10 11
3 12 13 14
3 15 16 17
3 18 19 20
3 21 22 23
3 24 25 26
3 27 28 29
3 30 31 32
3 33 34 35
3 36 37 38
3 39 40 41
3 42 43 44
3 45 46 47
3 48 49 50
3 51 52 53
3 54 55 56
3 57 58 59
3 60 61 62
3 63 64 65
3 66 67 68
3 69 70 71
3 72 73 74
3 75 76 77
3 78 79 80
3 81 82 83
3 84 85 86
3 87 88 89
3 90 91 92
3 93 94 95
3 96 97 98
3 99 100 101
3 102 103 104
3 105 106 107
3 108 109 110
3 111 112 113
3 114 115 116
3 117 118 119
3 120 121 122
3 123 124 125
3 126 127 128
3 129 130 131
3 132 133 134
3 135 136 137
3 138 139 140
3 141 142 143
3 144 145 146
3 147 148 149
3 150 151 152
3 153 154 155
3 156 157 158
3 159 160 161
3 162 163 164
3 165 166 167
3 168 169 170
3 171 172 173
3 174 175 176
3 177 178 179
